<mxfile host="Electron" modified="2023-11-18T17:41:21.792Z" agent="Mozilla/5.0 (Windows NT 10.0; Win64; x64) AppleWebKit/537.36 (KHTML, like Gecko) draw.io/22.1.2 Chrome/114.0.5735.289 Electron/25.9.4 Safari/537.36" etag="TGY37BCr8YAgQ1c3uaJZ" version="22.1.2" type="device">
  <diagram name="Page-1" id="cgDsWB1rKClHpi1VydO6">
    <mxGraphModel dx="1434" dy="884" grid="1" gridSize="10" guides="1" tooltips="1" connect="1" arrows="1" fold="1" page="1" pageScale="1" pageWidth="850" pageHeight="1100" math="0" shadow="0">
      <root>
        <mxCell id="0" />
        <mxCell id="1" parent="0" />
        <mxCell id="3odqVGsFfWHq_DNa3oB1-1" value="&lt;font size=&quot;1&quot; style=&quot;&quot;&gt;&lt;b style=&quot;font-size: 25px;&quot;&gt;CLK_GEN&lt;/b&gt;&lt;/font&gt;" style="rounded=0;whiteSpace=wrap;html=1;strokeWidth=4;" vertex="1" parent="1">
          <mxGeometry x="240" y="230" width="320" height="260" as="geometry" />
        </mxCell>
        <mxCell id="3odqVGsFfWHq_DNa3oB1-2" value="" style="endArrow=block;html=1;strokeWidth=2;endFill=1;rounded=0;" edge="1" parent="1">
          <mxGeometry width="50" height="50" relative="1" as="geometry">
            <mxPoint x="80" y="399.5" as="sourcePoint" />
            <mxPoint x="240" y="399.5" as="targetPoint" />
          </mxGeometry>
        </mxCell>
        <mxCell id="3odqVGsFfWHq_DNa3oB1-3" value="" style="endArrow=block;html=1;strokeWidth=2;endFill=1;rounded=0;" edge="1" parent="1">
          <mxGeometry width="50" height="50" relative="1" as="geometry">
            <mxPoint x="80" y="319.5" as="sourcePoint" />
            <mxPoint x="240" y="319.5" as="targetPoint" />
          </mxGeometry>
        </mxCell>
        <mxCell id="3odqVGsFfWHq_DNa3oB1-4" value="&lt;font size=&quot;1&quot; style=&quot;&quot;&gt;&lt;b style=&quot;font-size: 18px;&quot;&gt;RESET&lt;/b&gt;&lt;/font&gt;" style="text;html=1;strokeColor=none;fillColor=none;align=center;verticalAlign=middle;whiteSpace=wrap;rounded=0;fontSize=16;" vertex="1" parent="1">
          <mxGeometry x="110" y="289.5" width="70" height="30" as="geometry" />
        </mxCell>
        <mxCell id="3odqVGsFfWHq_DNa3oB1-5" value="&lt;b style=&quot;border-color: var(--border-color); font-size: 18px;&quot;&gt;CLK_100MHZ_I&lt;/b&gt;" style="text;html=1;strokeColor=none;fillColor=none;align=center;verticalAlign=middle;whiteSpace=wrap;rounded=0;fontSize=16;" vertex="1" parent="1">
          <mxGeometry x="110" y="359.5" width="70" height="30" as="geometry" />
        </mxCell>
        <mxCell id="3odqVGsFfWHq_DNa3oB1-6" value="" style="triangle;whiteSpace=wrap;html=1;strokeWidth=4;" vertex="1" parent="1">
          <mxGeometry x="240" y="389.5" width="20" height="25" as="geometry" />
        </mxCell>
        <mxCell id="3odqVGsFfWHq_DNa3oB1-11" value="" style="endArrow=block;html=1;strokeWidth=2;endFill=1;rounded=0;" edge="1" parent="1">
          <mxGeometry width="50" height="50" relative="1" as="geometry">
            <mxPoint x="558" y="280" as="sourcePoint" />
            <mxPoint x="718" y="280" as="targetPoint" />
          </mxGeometry>
        </mxCell>
        <mxCell id="3odqVGsFfWHq_DNa3oB1-12" value="&lt;b style=&quot;border-color: var(--border-color); font-size: 18px;&quot;&gt;CLK_100MHZ_O&lt;/b&gt;" style="text;html=1;strokeColor=none;fillColor=none;align=center;verticalAlign=middle;whiteSpace=wrap;rounded=0;fontSize=16;" vertex="1" parent="1">
          <mxGeometry x="601" y="250" width="70" height="30" as="geometry" />
        </mxCell>
        <mxCell id="3odqVGsFfWHq_DNa3oB1-13" value="" style="endArrow=block;html=1;strokeWidth=2;endFill=1;rounded=0;" edge="1" parent="1">
          <mxGeometry width="50" height="50" relative="1" as="geometry">
            <mxPoint x="560" y="440" as="sourcePoint" />
            <mxPoint x="720" y="440" as="targetPoint" />
          </mxGeometry>
        </mxCell>
        <mxCell id="3odqVGsFfWHq_DNa3oB1-14" value="&lt;b style=&quot;border-color: var(--border-color); font-size: 18px;&quot;&gt;LOCKED_O&lt;/b&gt;" style="text;html=1;strokeColor=none;fillColor=none;align=center;verticalAlign=middle;whiteSpace=wrap;rounded=0;fontSize=16;" vertex="1" parent="1">
          <mxGeometry x="609" y="409" width="70" height="30" as="geometry" />
        </mxCell>
        <mxCell id="3odqVGsFfWHq_DNa3oB1-21" value="" style="endArrow=block;html=1;strokeWidth=2;endFill=1;rounded=0;" edge="1" parent="1">
          <mxGeometry width="50" height="50" relative="1" as="geometry">
            <mxPoint x="560" y="360" as="sourcePoint" />
            <mxPoint x="720" y="360" as="targetPoint" />
          </mxGeometry>
        </mxCell>
        <mxCell id="3odqVGsFfWHq_DNa3oB1-22" value="&lt;b style=&quot;border-color: var(--border-color); font-size: 18px;&quot;&gt;CLK_200MHZ_O&lt;/b&gt;" style="text;html=1;strokeColor=none;fillColor=none;align=center;verticalAlign=middle;whiteSpace=wrap;rounded=0;fontSize=16;" vertex="1" parent="1">
          <mxGeometry x="603" y="330" width="70" height="30" as="geometry" />
        </mxCell>
      </root>
    </mxGraphModel>
  </diagram>
</mxfile>
